<svg xmlns="http://www.w3.org/2000/svg" viewBox="0 0 256 256">
  <rect width="256" height="256" fill="#ffffff"/>
  <path d="M128 60c-37.6 0-68 30.4-68 68s30.4 68 68 68c15.8 0 30.4-5.4 42-14.4l14.6 14.6c3.6 3.6 8.4 5.4 13.2 5.4 4.8 0 9.6-1.8 13.2-5.4 7.2-7.2 7.2-19.2 0-26.4l-14.6-14.6c9-11.6 14.4-26.2 14.4-42 0-37.6-30.4-68-68-68zm0 108c-22 0-40-18-40-40s18-40 40-40 40 18 40 40c0 9.2-3.2 17.6-8.4 24.4l-2.8 3.6 3.6 2.8c6.8 5.2 15.2 8.4 24.4 8.4-6.8 0-13.2-2.8-18-7.6l-18-18c-6.8 5.2-15.2 8.4-24.4 8.4z" fill="#4F46E5"/>
  <path d="M128 88c-22 0-40 18-40 40s18 40 40 40c8.8 0 17-2.8 23.6-7.6l16.8 16.8c2.4 2.4 2.4 6.4 0 8.8-2.4 2.4-6.4 2.4-8.8 0l-16.8-16.8c-4.8 4.8-10.8 8-17.6 9.6l20 20c6 6 15.6 6 21.6 0 6-6 6-15.6 0-21.6l-20-20c1.6-6.8 4.8-12.8 9.6-17.6 4.8-4.8 10.8-8 17.6-9.6-1.6 6.8-4.8 12.8-9.6 17.6-10.8 10.8-28.4 10.8-39.2 0-10.8-10.8-10.8-28.4 0-39.2 10.8-10.8 28.4-10.8 39.2 0 4.8 4.8 8 10.8 9.6 17.6-6.8-1.6-12.8-4.8-17.6-9.6-4.8-4.8-8-10.8-9.6-17.6 6.8 1.6 12.8 4.8 17.6 9.6l0.4 0.4c-6.4-4.8-14.8-7.6-23.6-7.6z" fill="#4F46E5"/>
  <circle cx="128" cy="128" r="40" fill="none" stroke="#4F46E5" stroke-width="28"/>
  <path d="M128 60c-37.6 0-68 30.4-68 68s30.4 68 68 68c16.8 0 32-6.4 44-16.8l18.4 18.4c3.6 3.6 8.4 5.6 13.6 5.6s10-2 13.6-5.6c7.6-7.6 7.6-19.6 0-27.2l-18.4-18.4c10.4-12 16.8-27.2 16.8-44 0-37.6-30.4-68-68-68zm32.8 122.4l-3.2-3.2 18.4 18.4c4.4 4.4 4.4 11.6 0 16-4.4 4.4-11.6 4.4-16 0l-18.4-18.4 3.2 3.2c-10.4 8.8-23.6 14-38.8 14-32.4 0-58.8-26.4-58.8-58.8s26.4-58.8 58.8-58.8 58.8 26.4 58.8 58.8c0 15.2-5.2 28.4-14 38.8z" fill="#4F46E5"/>
  <text x="128" y="168" font-family="Arial, sans-serif" font-size="120" font-weight="900" text-anchor="middle" fill="#4F46E5">Q</text>
  <polygon points="200,52 206,68 222,74 206,80 200,96 194,80 178,74 194,68" fill="#4F46E5"/>
</svg>